<?xml version="1.0" encoding="utf-8"?>
<!-- Generator: Adobe Illustrator 19.2.0, SVG Export Plug-In . SVG Version: 6.00 Build 0)  -->
<svg version="1.1" id="Layer_1" xmlns="http://www.w3.org/2000/svg" xmlns:xlink="http://www.w3.org/1999/xlink" x="0px" y="0px"
	 viewBox="0 0 377.5 221" style="enable-background:new 0 0 377.5 221;" xml:space="preserve">
<style type="text/css">
	.st0{fill:#D3302F;}
</style>
<g>
	<g>
		<path class="st0" d="M72.5,14H305c4.1,0.1,4.1,0.1,4.1,4.1v185c-0.1,3.9-0.1,3.9-4.1,3.9H72.4c-4,0-4,0-4-3.9V17.9
			C68.4,14,68.4,14,72.5,14z M87.4,30.3c-2.5,0.5-3.1,3.6-2.9,5.7c-0.1,45.1,0,90.2,0,135.3c0,5.3-0.2,10.6,0.2,15.9
			c0.1,1.9,2,3.4,3.9,3.4c65.7,0,131.4,0,197.2,0c2-0.3,4.6,0.5,6.1-1.2c1.7-1.9,1-4.7,1.3-7c-0.1-43.6,0-87.1,0-130.7
			c-0.1-6.1,0.3-12.1-0.2-18.2c-0.1-1.9-2-3.4-3.9-3.4c-61.9-0.1-123.8,0-185.7,0C98,30.1,92.7,29.8,87.4,30.3z"/>
	</g>
</g>
<g>
	<path class="st0" d="M121.4,46.3c10.1-1.6,20.8,4.2,25.1,13.5c4.2,8.6,2.6,19.7-4.1,26.7c-7.1,7.9-19.7,10.2-29,4.9
		c-11.2-5.4-16.3-20.6-10.5-31.6C106.1,52.5,113.4,47.3,121.4,46.3z"/>
	<path class="st0" d="M224.9,66.3c17.4,17.2,34.6,34.6,52,51.9c0.2,18.7,0,37.5,0.1,56.3c-58.8,0-117.7,0-176.5,0
		c0.1-7.8-0.3-15.6,0.1-23.4c0.6-1.6,2.1-2.8,3.2-4.1c12.4-12.2,24.5-24.6,36.9-36.8c6.6,6.7,13.2,13.3,19.9,19.9
		c7.2-7.4,14.9-14.2,22.1-21.6C196.8,94.5,210.9,80.4,224.9,66.3z"/>
</g>
</svg>
